HIERARCHY
ROOT Hips
{
  OFFSET 57.8838 95.319 338.509
  CHANNELS 6 Xposition Yposition Zposition Zrotation Xrotation Yrotation
  JOINT LeftUpLeg
  {
    OFFSET 8.64259 1.95398 -2.38835
    CHANNELS 3 Zrotation Xrotation Yrotation
    JOINT LeftLeg
    {
      OFFSET 43.7702 0 0
      CHANNELS 3 Zrotation Xrotation Yrotation
      JOINT LeftFoot
      {
        OFFSET 40.6238 0 0
        CHANNELS 3 Zrotation Xrotation Yrotation
        JOINT LeftToeBase
        {
          OFFSET 12.7242 0 0
          CHANNELS 3 Zrotation Xrotation Yrotation
          End Site
          {
            OFFSET 0 0 0
          }
        }
      }
    }
  }
  JOINT RightUpLeg
  {
    OFFSET -8.2249 1.95398 -2.59336
    CHANNELS 3 Zrotation Xrotation Yrotation
    JOINT RightLeg
    {
      OFFSET 43.5653 0 0
      CHANNELS 3 Zrotation Xrotation Yrotation
      JOINT RightFoot
      {
        OFFSET 40.6238 0 0
        CHANNELS 3 Zrotation Xrotation Yrotation
        JOINT RightToeBase
        {
          OFFSET 12.7242 0 0
          CHANNELS 3 Zrotation Xrotation Yrotation
          End Site
          {
            OFFSET 0 0 0
          }
        }
      }
    }
  }
  JOINT Spine
  {
    OFFSET 0.165834 0.87714 6.61349
    CHANNELS 3 Zrotation Xrotation Yrotation
    JOINT Spine1
    {
      OFFSET 7.38963 1.71661e-005 0
      CHANNELS 3 Zrotation Xrotation Yrotation
      JOINT Spine2
      {
        OFFSET 11.9445 1.14441e-005 0
        CHANNELS 3 Zrotation Xrotation Yrotation
        JOINT Spine3
        {
          OFFSET 14.7254 4.19617e-005 0
          CHANNELS 3 Zrotation Xrotation Yrotation
          JOINT Spine4
          {
            OFFSET 10.9679 0 0
            CHANNELS 3 Zrotation Xrotation Yrotation
            JOINT RightShoulder
            {
              OFFSET 2.46616 -1.6653 3.69651
              CHANNELS 3 Zrotation Xrotation Yrotation
              JOINT RightArm
              {
                OFFSET 13.0012 0 0
                CHANNELS 3 Zrotation Xrotation Yrotation
                JOINT RightForeArm
                {
                  OFFSET 28.7848 1.62311e-005 0
                  CHANNELS 3 Zrotation Xrotation Yrotation
                  JOINT RightHand
                  {
                    OFFSET 26.5688 1.62095e-005 0
                    CHANNELS 3 Zrotation Xrotation Yrotation
                    End Site
                    {
                      OFFSET 0 0 0
                    }
                  }
                }
              }
            }
            JOINT LeftShoulder
            {
              OFFSET 2.38034 -1.29275 -3.7523
              CHANNELS 3 Zrotation Xrotation Yrotation
              JOINT LeftArm
              {
                OFFSET 16.3182 6.07031e-005 0
                CHANNELS 3 Zrotation Xrotation Yrotation
                JOINT LeftForeArm
                {
                  OFFSET 27.0901 0 0
                  CHANNELS 3 Zrotation Xrotation Yrotation
                  JOINT LeftHand
                  {
                    OFFSET 24.5451 1.51738e-005 0
                    CHANNELS 3 Zrotation Xrotation Yrotation
                    End Site
                    {
                      OFFSET 0 0 0
                    }
                  }
                }
              }
            }
            JOINT Neck
            {
              OFFSET 5.0226 -0.0266342 0
              CHANNELS 3 Zrotation Xrotation Yrotation
              JOINT Head
              {
                OFFSET 6.69364 2.86102e-005 0
                CHANNELS 3 Zrotation Xrotation Yrotation
                End Site
                {
                  OFFSET 0 0 0
                }
              }
            }
          }
        }
      }
    }
  }
}
MOTION
Frames:	7
Frame Time:	0.0416667
-106.563 81.2252 45.1234 99.0821 -87.4263 103.882 -160.241 58.6557 86.113 -102.677 16.7724 4.47074 57.9058 3.12839 15.5908 40.6978 4.99986 2.84714 163.014 36.6842 74.3818 -62.8085 -16.2321 4.23062 63.9447 1.85479 5.46631 41.9779 -18.0196 -2.05069 0.286553 11.9486 -92.0833 2.95361 -0.248718 -4.07407 -8.72364 -0.427628 -4.05923 -31.2095 0.986209 -3.96091 -11.1969 0.986209 -3.9609 93.2454 -50.6698 -95.7223 -5.32615 17.6513 -43.8497 3.90715 -6.11948 -9.78982 -16.6435 -0.514741 -1.61161 -85.6377 -50.4806 85.3449 -6.83318 -43.3261 17.3867 12.6964 82.8724 0.167551 5.63126 -0.106514 -10.9862 19.7003 -2.39669 -16.7175 4.55015 4.71969 29.3713 
-112.047 83.6733 44.5372 52.3069 -87.0969 57.5705 -152.459 51.711 71.6642 -85.8615 23.6248 -0.890271 56.7642 0.772354 13.5371 41.6566 5.32893 1.6426 158.779 38.7971 78.1267 -61.8103 -20.1961 7.31745 61.4957 5.4245 6.20462 40.0222 -15.3446 -1.9449 0.486032 11.9242 -92.207 3.00675 0.100046 -4.31294 -8.67134 -0.089686 -4.31318 -31.1536 1.39055 -4.08425 -11.1409 1.39055 -4.08424 92.4666 -47.9064 -97.4339 0.0721728 16.5689 -50.8521 4.31119 -0.646434 -14.1376 -15.0957 -0.221243 -3.5829 -86.6992 -51.4286 83.9036 -19.1535 -41.1669 6.85543 -166.714 88.6716 178.977 5.5885 -0.240258 -12.7348 20.2978 -3.02652 -18.1322 4.72666 4.7578 30.1766 
-116.681 85.8577 44.2554 -14.075 -85.7451 -9.41852 -157.543 44.5907 69.1506 -61.2446 21.5724 -8.48419 55.8665 -2.15717 10.3169 38.3185 3.93062 1.96104 156.933 44.1572 80.0742 -63.1083 -21.3263 7.52156 55.0498 15.5767 15.5435 28.5849 0.317281 -0.750411 0.803804 11.7285 -92.0101 3.41425 0.805571 -3.92919 -8.26249 0.632005 -3.96077 -30.7599 1.94852 -3.50635 -10.7472 1.94853 -3.50635 92.8879 -45.6471 -97.2032 -1.71533 7.25233 -54.743 3.7248 -0.194444 -19.458 -9.07812 0.0532559 -6.25851 -87.3063 -52.0891 83.113 -25.3247 -33.2874 2.64546 5.20855 87.4177 0.164545 7.93726 -0.434765 -12.1282 17.0353 -2.47399 -15.6848 8.07352 4.68711 27.3886 
-121.585 87.1303 45.0709 -52.7087 -83.768 -45.3036 -167.32 38.8268 73.4749 -45.7651 17.6994 -9.55593 53.8817 -5.89 9.80459 33.0982 1.69285 3.32983 160.079 43.149 82.8177 -62.7941 -18.6454 5.80626 53.3674 17.0697 17.2062 27.4772 2.06107 -4.32983 1.15711 11.6825 -92.0237 3.51703 1.50424 -3.95526 -8.15925 1.32885 -4.01749 -30.665 2.62281 -3.3214 -10.6523 2.62281 -3.3214 92.2752 -44.7774 -98.3844 -2.62584 -2.91359 -56.9595 -4.32831 -9.91569 -28.6147 -3.55156 0.0430823 -7.84859 -87.3361 -52.8868 83.1985 -28.4154 -28.1914 -0.68655 0.977935 78.7279 0.00873734 11.2905 -0.63295 -11.534 13.4907 -1.31466 -14.2005 10.1658 5.35909 26.6931 
-127.233 86.5768 45.979 -80.9129 -82.8454 -69.0008 -173.011 33.7862 77.0421 -46.1545 19.1613 -5.78253 58.2828 2.86237 17.1277 16.6076 -4.59026 -2.52505 165.656 38.2584 85.355 -59.8013 -12.1272 3.37606 57.6685 9.08922 7.38991 31.0141 -3.09862 -7.44253 1.30466 11.6887 -92.0825 3.50902 1.77562 -4.0686 -8.16733 1.595 -4.14263 -30.6749 2.91569 -3.34804 -10.6623 2.91569 -3.34806 91.3792 -45.8238 -99.614 -2.56647 -13.8373 -57.5109 -16.3929 -13.8864 -39.4248 3.75598 -0.197081 -9.72412 -87.1162 -53.766 83.6558 -30.1957 -28.9823 -4.81783 2.75648 76.8796 0.0183509 15.4931 -0.869516 -11.4984 12.8989 0.0448571 -14.2187 8.68108 6.14699 25.924 
-133.434 84.8085 46.3804 -85.0504 -83.3314 -69.8737 -175.571 33.4157 80.4449 -51.5317 19.5248 -1.75454 59.827 11.9042 26.4245 30.6696 0.885504 -1.54252 170.523 34.9455 86.0954 -53.6138 -6.04455 1.30808 61.0693 5.35977 8.46255 33.4888 -6.89753 -7.86816 1.00565 11.4326 -91.8881 4.01487 1.24808 -3.70456 -7.66086 1.08396 -3.75579 -30.1684 2.30327 -3.15905 -10.1557 2.30327 -3.15905 90.5915 -49.0353 -100.132 -4.62884 -24.639 -57.8745 -21.8864 -6.6344 -48.1758 5.72889 -0.272449 -9.52847 -86.7712 -54.3387 84.239 -29.6664 -30.7222 -8.1003 4.68671 77.2507 0.0260528 17.1602 -0.740691 -10.206 16.1757 1.09397 -18.7774 4.06201 7.89113 27.9056 
-139.576 83.5023 46.4544 -43.3998 -85.6108 -29.2007 -175.775 40.2634 81.745 -61.735 23.509 0.12796 58.9006 10.5406 26.1958 38.9285 4.08821 -0.289767 174.099 33.9494 82.8531 -46.0449 -9.74524 0.397582 59.8421 9.1405 12.7504 33.8441 -7.20356 -5.50092 0.338897 11.053 -91.3744 4.76121 0.114115 -2.69799 -6.91255 -0.00468689 -2.70038 -29.4269 0.919426 -2.53917 -9.41421 0.91942 -2.53917 89.5921 -52.2882 -100.912 -4.84825 -31.961 -55.0817 -27.5487 1.0156 -57.7107 7.06358 -0.25441 -8.45377 -87.373 -53.5346 83.2479 -30.8739 -31.6801 -14.9165 7.0109 75.6722 0.0138494 13.0392 -0.56254 -10.8395 21.2986 0.883125 -25.0392 -0.215504 9.60677 31.0083 
